<mxfile host="app.diagrams.net" modified="2025-10-23T00:00:00.000Z" agent="5.0" etag="xxx" version="24.7.17" type="device">
  <diagram name="TBSAR ECU Architecture" id="tbsar-ecu-arch">
    <mxGraphModel dx="1422" dy="794" grid="1" gridSize="10" guides="1" tooltips="1" connect="1" arrows="1" fold="1" page="1" pageScale="1" pageWidth="1169" pageHeight="827" math="0" shadow="0">
      <root>
        <mxCell id="0" />
        <mxCell id="1" parent="0" />
        
        <!-- Title -->
        <mxCell id="title" value="TBSAR ECU Layer Architecture" style="text;html=1;strokeColor=none;fillColor=none;align=center;verticalAlign=middle;whiteSpace=wrap;rounded=0;fontSize=20;fontStyle=1;" vertex="1" parent="1">
          <mxGeometry x="400" y="80" width="360" height="40" as="geometry" />
        </mxCell>
        
        <!-- Main MCU Block -->
        <mxCell id="mcu" value="LPC11C24 MCU&#xa;ARM Cortex-M0 @ 48MHz&#xa;32KB Flash, 8KB SRAM" style="rounded=1;whiteSpace=wrap;html=1;fontSize=16;fontStyle=1;fillColor=#e1d5e7;strokeColor=#9673a6;strokeWidth=4;" vertex="1" parent="1">
          <mxGeometry x="400" y="200" width="360" height="300" as="geometry" />
        </mxCell>
        
        <!-- MCU Core -->
        <mxCell id="core" value="ARM&#xa;Cortex-M0&#xa;Core" style="rounded=1;whiteSpace=wrap;html=1;fontSize=14;fontStyle=1;fillColor=#f8cecc;strokeColor=#b85450;strokeWidth=2;" vertex="1" parent="1">
          <mxGeometry x="540" y="320" width="80" height="80" as="geometry" />
        </mxCell>
        
        <!-- MCU Peripherals -->
        <mxCell id="gpio" value="GPIO" style="rounded=1;whiteSpace=wrap;html=1;fontSize=12;fontStyle=1;fillColor=#fff2cc;strokeColor=#d6b656;" vertex="1" parent="1">
          <mxGeometry x="420" y="260" width="80" height="40" as="geometry" />
        </mxCell>
        
        <mxCell id="adc" value="ADC" style="rounded=1;whiteSpace=wrap;html=1;fontSize=12;fontStyle=1;fillColor=#fff2cc;strokeColor=#d6b656;" vertex="1" parent="1">
          <mxGeometry x="420" y="320" width="80" height="40" as="geometry" />
        </mxCell>
        
        <mxCell id="uart" value="UART" style="rounded=1;whiteSpace=wrap;html=1;fontSize=12;fontStyle=1;fillColor=#fff2cc;strokeColor=#d6b656;" vertex="1" parent="1">
          <mxGeometry x="420" y="380" width="80" height="40" as="geometry" />
        </mxCell>
        
        <mxCell id="i2c" value="I2C" style="rounded=1;whiteSpace=wrap;html=1;fontSize=12;fontStyle=1;fillColor=#fff2cc;strokeColor=#d6b656;" vertex="1" parent="1">
          <mxGeometry x="660" y="290" width="80" height="40" as="geometry" />
        </mxCell>
        
        <mxCell id="spi" value="SPI" style="rounded=1;whiteSpace=wrap;html=1;fontSize=12;fontStyle=1;fillColor=#fff2cc;strokeColor=#d6b656;" vertex="1" parent="1">
          <mxGeometry x="660" y="350" width="80" height="40" as="geometry" />
        </mxCell>
        
        <!-- ECU Modules - Left Side -->
        <mxCell id="rgb" value="RGB LED&#xa;Module" style="rounded=1;whiteSpace=wrap;html=1;fontSize=12;fontStyle=1;fillColor=#d5e8d4;strokeColor=#82b366;" vertex="1" parent="1">
          <mxGeometry x="180" y="180" width="120" height="60" as="geometry" />
        </mxCell>
        
        <mxCell id="ukeys" value="5 User Keys&#xa;Module" style="rounded=1;whiteSpace=wrap;html=1;fontSize=12;fontStyle=1;fillColor=#d5e8d4;strokeColor=#82b366;" vertex="1" parent="1">
          <mxGeometry x="180" y="260" width="120" height="60" as="geometry" />
        </mxCell>
        
        <mxCell id="sensors" value="ADC Sensors&#xa;VPOT + LM35" style="rounded=1;whiteSpace=wrap;html=1;fontSize=12;fontStyle=1;fillColor=#d5e8d4;strokeColor=#82b366;" vertex="1" parent="1">
          <mxGeometry x="180" y="340" width="120" height="60" as="geometry" />
        </mxCell>
        
        <mxCell id="monitor" value="UART Monitor&#xa;USB Debug" style="rounded=1;whiteSpace=wrap;html=1;fontSize=12;fontStyle=1;fillColor=#d5e8d4;strokeColor=#82b366;" vertex="1" parent="1">
          <mxGeometry x="180" y="420" width="120" height="60" as="geometry" />
        </mxCell>
        
        <!-- ECU Modules - Right Side -->
        <mxCell id="eeprom" value="I2C EEPROM&#xa;External Memory" style="rounded=1;whiteSpace=wrap;html=1;fontSize=12;fontStyle=1;fillColor=#d5e8d4;strokeColor=#82b366;" vertex="1" parent="1">
          <mxGeometry x="860" y="260" width="120" height="60" as="geometry" />
        </mxCell>
        
        <mxCell id="dac" value="SPI DAC&#xa;Analog Output" style="rounded=1;whiteSpace=wrap;html=1;fontSize=12;fontStyle=1;fillColor=#d5e8d4;strokeColor=#82b366;" vertex="1" parent="1">
          <mxGeometry x="860" y="360" width="120" height="60" as="geometry" />
        </mxCell>
        
        <!-- Connections RGB to GPIO -->
        <mxCell id="conn1" value="P2.10, P1.2, P1.10" style="edgeStyle=orthogonalEdgeStyle;rounded=0;orthogonalLoop=1;jettySize=auto;html=1;exitX=1;exitY=0.5;exitDx=0;exitDy=0;entryX=0;entryY=0.5;entryDx=0;entryDy=0;strokeWidth=2;strokeColor=#82b366;" edge="1" parent="1" source="rgb" target="gpio">
          <mxGeometry relative="1" as="geometry">
            <Array as="points">
              <mxPoint x="340" y="210" />
              <mxPoint x="340" y="280" />
            </Array>
          </mxGeometry>
        </mxCell>
        
        <!-- Connections User Keys to GPIO -->
        <mxCell id="conn2" value="P0.3, P1.4, P2.6-8" style="edgeStyle=orthogonalEdgeStyle;rounded=0;orthogonalLoop=1;jettySize=auto;html=1;exitX=1;exitY=0.5;exitDx=0;exitDy=0;entryX=0;entryY=0.5;entryDx=0;entryDy=0;strokeWidth=2;strokeColor=#82b366;" edge="1" parent="1" source="ukeys" target="gpio">
          <mxGeometry relative="1" as="geometry" />
        </mxCell>
        
        <!-- Connections Sensors to ADC -->
        <mxCell id="conn3" value="P0.11, P1.0" style="edgeStyle=orthogonalEdgeStyle;rounded=0;orthogonalLoop=1;jettySize=auto;html=1;exitX=1;exitY=0.5;exitDx=0;exitDy=0;entryX=0;entryY=0.5;entryDx=0;entryDy=0;strokeWidth=2;strokeColor=#82b366;" edge="1" parent="1" source="sensors" target="adc">
          <mxGeometry relative="1" as="geometry">
            <Array as="points">
              <mxPoint x="340" y="370" />
              <mxPoint x="340" y="340" />
            </Array>
          </mxGeometry>
        </mxCell>
        
        <!-- Connections Monitor to UART -->
        <mxCell id="conn4" value="P1.6, P1.7 @ 57600" style="edgeStyle=orthogonalEdgeStyle;rounded=0;orthogonalLoop=1;jettySize=auto;html=1;exitX=1;exitY=0.5;exitDx=0;exitDy=0;entryX=0;entryY=0.5;entryDx=0;entryDy=0;strokeWidth=2;strokeColor=#82b366;" edge="1" parent="1" source="monitor" target="uart">
          <mxGeometry relative="1" as="geometry">
            <Array as="points">
              <mxPoint x="340" y="450" />
              <mxPoint x="340" y="400" />
            </Array>
          </mxGeometry>
        </mxCell>
        
        <!-- Connections I2C to EEPROM -->
        <mxCell id="conn5" value="P0.4, P0.5 @ 400kHz" style="edgeStyle=orthogonalEdgeStyle;rounded=0;orthogonalLoop=1;jettySize=auto;html=1;exitX=1;exitY=0.5;exitDx=0;exitDy=0;entryX=0;entryY=0.5;entryDx=0;entryDy=0;strokeWidth=2;strokeColor=#82b366;" edge="1" parent="1" source="i2c" target="eeprom">
          <mxGeometry relative="1" as="geometry">
            <Array as="points">
              <mxPoint x="820" y="310" />
              <mxPoint x="820" y="290" />
            </Array>
          </mxGeometry>
        </mxCell>
        
        <!-- Connections SPI to DAC -->
        <mxCell id="conn6" value="P2.11, P0.9, P0.2 @ 1MHz" style="edgeStyle=orthogonalEdgeStyle;rounded=0;orthogonalLoop=1;jettySize=auto;html=1;exitX=1;exitY=0.5;exitDx=0;exitDy=0;entryX=0;entryY=0.5;entryDx=0;entryDy=0;strokeWidth=2;strokeColor=#82b366;" edge="1" parent="1" source="spi" target="dac">
          <mxGeometry relative="1" as="geometry">
            <Array as="points">
              <mxPoint x="820" y="370" />
              <mxPoint x="820" y="390" />
            </Array>
          </mxGeometry>
        </mxCell>
        
        <!-- Internal MCU Bus Connections -->
        <mxCell id="bus1" value="" style="edgeStyle=orthogonalEdgeStyle;rounded=0;orthogonalLoop=1;jettySize=auto;html=1;exitX=1;exitY=0.5;exitDx=0;exitDy=0;entryX=0;entryY=0.25;entryDx=0;entryDy=0;strokeWidth=2;strokeColor=#d6b656;" edge="1" parent="1" source="gpio" target="core">
          <mxGeometry relative="1" as="geometry" />
        </mxCell>
        
        <mxCell id="bus2" value="" style="edgeStyle=orthogonalEdgeStyle;rounded=0;orthogonalLoop=1;jettySize=auto;html=1;exitX=1;exitY=0.5;exitDx=0;exitDy=0;entryX=0;entryY=0.5;entryDx=0;entryDy=0;strokeWidth=2;strokeColor=#d6b656;" edge="1" parent="1" source="adc" target="core">
          <mxGeometry relative="1" as="geometry" />
        </mxCell>
        
        <mxCell id="bus3" value="" style="edgeStyle=orthogonalEdgeStyle;rounded=0;orthogonalLoop=1;jettySize=auto;html=1;exitX=1;exitY=0.5;exitDx=0;exitDy=0;entryX=0;entryY=0.75;entryDx=0;entryDy=0;strokeWidth=2;strokeColor=#d6b656;" edge="1" parent="1" source="uart" target="core">
          <mxGeometry relative="1" as="geometry" />
        </mxCell>
        
        <mxCell id="bus4" value="" style="edgeStyle=orthogonalEdgeStyle;rounded=0;orthogonalLoop=1;jettySize=auto;html=1;exitX=0;exitY=0.5;exitDx=0;exitDy=0;entryX=1;entryY=0.25;entryDx=0;entryDy=0;strokeWidth=2;strokeColor=#d6b656;" edge="1" parent="1" source="i2c" target="core">
          <mxGeometry relative="1" as="geometry" />
        </mxCell>
        
        <mxCell id="bus5" value="" style="edgeStyle=orthogonalEdgeStyle;rounded=0;orthogonalLoop=1;jettySize=auto;html=1;exitX=0;exitY=0.5;exitDx=0;exitDy=0;entryX=1;entryY=0.75;entryDx=0;entryDy=0;strokeWidth=2;strokeColor=#d6b656;" edge="1" parent="1" source="spi" target="core">
          <mxGeometry relative="1" as="geometry" />
        </mxCell>
        
        <!-- Current Application Note -->
        <mxCell id="app_note" value="Current Application:&#xa;RGB Green LED Blink&#xa;500ms intervals" style="rounded=1;whiteSpace=wrap;html=1;fontSize=11;fontStyle=2;fillColor=#f8cecc;strokeColor=#b85450;" vertex="1" parent="1">
          <mxGeometry x="50" y="180" width="100" height="60" as="geometry" />
        </mxCell>
        
        <!-- Legend -->
        <mxCell id="legend_title" value="Legend:" style="text;html=1;strokeColor=none;fillColor=none;align=left;verticalAlign=middle;whiteSpace=wrap;rounded=0;fontSize=12;fontStyle=1;" vertex="1" parent="1">
          <mxGeometry x="50" y="550" width="60" height="20" as="geometry" />
        </mxCell>
        
        <mxCell id="legend_ecu" value="ECU Modules" style="rounded=1;whiteSpace=wrap;html=1;fontSize=10;fillColor=#d5e8d4;strokeColor=#82b366;" vertex="1" parent="1">
          <mxGeometry x="50" y="580" width="80" height="30" as="geometry" />
        </mxCell>
        
        <mxCell id="legend_core" value="MCU Core" style="rounded=1;whiteSpace=wrap;html=1;fontSize=10;fillColor=#f8cecc;strokeColor=#b85450;" vertex="1" parent="1">
          <mxGeometry x="150" y="580" width="80" height="30" as="geometry" />
        </mxCell>
        
        <mxCell id="legend_periph" value="MCU Peripherals" style="rounded=1;whiteSpace=wrap;html=1;fontSize=10;fillColor=#fff2cc;strokeColor=#d6b656;" vertex="1" parent="1">
          <mxGeometry x="250" y="580" width="100" height="30" as="geometry" />
        </mxCell>
        
        <!-- System Info -->
        <mxCell id="sys_info" value="ECU Modules: 6&#xa;MCU Peripherals: 5&#xa;System Memory: 8.3KB" style="text;html=1;strokeColor=#b85450;fillColor=#f8cecc;align=center;verticalAlign=middle;whiteSpace=wrap;rounded=1;fontSize=10;fontStyle=2;" vertex="1" parent="1">
          <mxGeometry x="860" y="550" width="120" height="60" as="geometry" />
        </mxCell>
        
      </root>
    </mxGraphModel>
  </diagram>
</mxfile>